<svg width="16" height="17" viewBox="0 0 16 17" fill="none" xmlns="http://www.w3.org/2000/svg">
<path d="M16 14.7224L11.4191 10.1415C12.266 8.8544 12.6052 7.29888 12.371 5.77607C12.1369 4.25326 11.346 2.8715 10.1516 1.89831C8.95712 0.925118 7.44408 0.429727 5.90536 0.50805C4.36665 0.586373 2.91173 1.23284 1.82228 2.32228C0.732838 3.41173 0.0863732 4.86665 0.00805022 6.40536C-0.0702728 7.94408 0.425118 9.45712 1.39831 10.6516C2.3715 11.846 3.75326 12.6369 5.27607 12.871C6.79888 13.1052 8.3544 12.766 9.64148 11.9191L14.2224 16.5L16 14.7224ZM1.77911 6.72314C1.77911 4.2727 3.7727 2.27911 6.22314 2.27911C8.67358 2.27911 10.6672 4.2727 10.6672 6.72314C10.6672 9.17358 8.67358 11.1672 6.22314 11.1672C3.7727 11.1672 1.77911 9.17358 1.77911 6.72314Z" fill="#949494"/>
</svg>
